<svg xmlns="http://www.w3.org/2000/svg" width="138" height="115" viewBox="0 0 138 115">
  <g id="secured-online" transform="translate(-17.706 -20.589)">
    <g id="Group_78" data-name="Group 78" transform="translate(17.706 20.589)">
      <path id="Path_15" data-name="Path 15" d="M8.214.149A8.2,8.2,0,0,0,0,8.363v69a8.2,8.2,0,0,0,8.214,8.214H129.786A8.2,8.2,0,0,0,138,77.364v-69A8.2,8.2,0,0,0,129.786.149ZM57.5,13.292h23a8.119,8.119,0,0,1,8.214,8.214V36.292h1.643a3.279,3.279,0,0,1,3.286,3.286V69.15a3.279,3.279,0,0,1-3.286,3.286H47.643a3.279,3.279,0,0,1-3.286-3.286V39.578a3.279,3.279,0,0,1,3.286-3.286h1.643V21.506A8.119,8.119,0,0,1,57.5,13.292Zm0,6.571a1.265,1.265,0,0,0-1.181.462,2.189,2.189,0,0,0-.462,1.181V36.292H82.143V21.506a2.189,2.189,0,0,0-.462-1.181,1.265,1.265,0,0,0-1.181-.462ZM54.112,92.15c-.267,6.687-1.462,12.6-4.98,16.428h-21.2a3.413,3.413,0,0,0-3.286,3.286,3.544,3.544,0,0,0,3.286,3.286h82.143a3.286,3.286,0,1,0,0-6.572h-21.2c-3.518-3.833-4.713-9.741-4.98-16.428Z" transform="translate(0 -0.149)" fill="#ecf0f1" fill-rule="evenodd"/>
    </g>
  </g>
</svg>
