<svg xmlns="http://www.w3.org/2000/svg" width="26.08" height="26.08" viewBox="0 0 26.08 26.08">
  <path id="user" d="M13.04,13.048A5.048,5.048,0,1,0,18.088,18.1,5.049,5.049,0,0,0,13.04,13.048Zm0,7.572A2.524,2.524,0,1,1,15.564,18.1,2.525,2.525,0,0,1,13.04,20.619ZM13.04,8A13.04,13.04,0,1,0,26.08,21.04,13.038,13.038,0,0,0,13.04,8Zm0,23.556A10.456,10.456,0,0,1,6.2,29.011a4.53,4.53,0,0,1,3.66-2.077,10.7,10.7,0,0,0,3.181.5,10.531,10.531,0,0,0,3.181-.5,4.543,4.543,0,0,1,3.66,2.077A10.456,10.456,0,0,1,13.04,31.556ZM21.6,27.134a6.975,6.975,0,0,0-5.526-2.729,15.779,15.779,0,0,1-3.029.5,15.865,15.865,0,0,1-3.029-.5,6.99,6.99,0,0,0-5.526,2.729A10.511,10.511,0,1,1,23.556,21.04,10.441,10.441,0,0,1,21.6,27.134Z" transform="translate(0 -8)" fill="#fff"/>
</svg>
