<svg xmlns="http://www.w3.org/2000/svg" width="38.129" height="38.129" viewBox="0 0 38.129 38.129">
  <path id="user" d="M19.065,15.38a7.38,7.38,0,1,0,7.38,7.38A7.382,7.382,0,0,0,19.065,15.38Zm0,11.07a3.69,3.69,0,1,1,3.69-3.69A3.691,3.691,0,0,1,19.065,26.45Zm0-18.45A19.065,19.065,0,1,0,38.129,27.065,19.061,19.061,0,0,0,19.065,8Zm0,34.439a15.287,15.287,0,0,1-10-3.721,6.623,6.623,0,0,1,5.35-3.037,15.64,15.64,0,0,0,4.651.738,15.4,15.4,0,0,0,4.651-.738,6.642,6.642,0,0,1,5.35,3.037A15.287,15.287,0,0,1,19.065,42.439Zm12.507-6.465a10.2,10.2,0,0,0-8.079-3.99c-.784,0-2,.738-4.428.738s-3.644-.738-4.428-.738a10.219,10.219,0,0,0-8.079,3.99,15.367,15.367,0,1,1,27.882-8.91A15.265,15.265,0,0,1,31.572,35.974Z" transform="translate(0 -8)" fill="#192a56"/>
</svg>
