<svg xmlns="http://www.w3.org/2000/svg" xmlns:xlink="http://www.w3.org/1999/xlink" width="142.483" height="142.483" viewBox="0 0 142.483 142.483">
  <defs>
    <filter id="Ellipse_114" x="0" y="0" width="142.483" height="142.483" filterUnits="userSpaceOnUse">
      <feOffset dy="11" input="SourceAlpha"/>
      <feGaussianBlur stdDeviation="11" result="blur"/>
      <feFlood flood-opacity="0.161"/>
      <feComposite operator="in" in2="blur"/>
      <feComposite in="SourceGraphic"/>
    </filter>
  </defs>
  <g id="user-female" transform="translate(-1710 -35)">
    <g transform="matrix(1, 0, 0, 1, 1710, 35)" filter="url(#Ellipse_114)">
      <circle id="Ellipse_114-2" data-name="Ellipse 114" cx="38.242" cy="38.242" r="38.242" transform="translate(33 22)" fill="#fff"/>
    </g>
    <g id="girl-HJY6nanoE" transform="translate(1762.765 74.187)" opacity="0.68">
      <g id="Group_95" data-name="Group 95" transform="translate(0 0)">
        <path id="Path_18" data-name="Path 18" d="M35.522,30.452a1.894,1.894,0,0,0-.412-.549,100.017,100.017,0,0,0-10.562-4.252V25.1c8.5-.823,8.642-1.92,8.779-2.606.137-1.1-1.1-1.509-1.509-1.646-3.292-1.235-2.743-3.566-2.606-3.978.96-6.31.274-10.836-1.92-13.305a6.228,6.228,0,0,0-5.075-2.195A9.362,9.362,0,0,0,17.553,0,7.62,7.62,0,0,0,12.2,2.332C10.009,4.8,9.734,7.956,9.6,11.248c-.137,3.566-.274,7.27-3.018,10.013a1.157,1.157,0,0,0-.274.96c.137.274,1.1,2.881,6.858,3.018v.274C11.243,26.2,5.208,28.531,2.6,29.9c-.137.137-.412.274-.412.549-.137.274-2.058,5.761-1.235,9.876.137.412.412.96.96.96H35.8c.412,0,.823-.549.96-.96.823-3.978-1.1-9.6-1.235-9.876ZM14.535,27.16c.412-.137.549-.412.686-.823v-1.92a.938.938,0,0,0-.96-.96h-.412c-3.429,0-4.8-.823-5.35-1.372,2.743-3.292,2.881-7.133,3.018-10.7.137-3.155.274-5.761,1.92-7.544a5.337,5.337,0,0,1,3.978-1.783,7.029,7.029,0,0,1,3.841,1.235c.274.137.549.274.686.137a4.351,4.351,0,0,1,3.7,1.509C26.88,6.31,28.115,9.6,27.155,16.6c-.549,1.372-.412,4.389,3.155,5.9a41.218,41.218,0,0,1-6.858.96c-.549,0-.823.412-.823.96v2.058a.869.869,0,0,0,.686.823,18.589,18.589,0,0,1,2.195.823A10.962,10.962,0,0,1,18.1,31.412a10.539,10.539,0,0,1-6.584-3.018,21.064,21.064,0,0,1,3.018-1.235Z" transform="translate(-0.751 0)" fill="#192a56" fill-rule="evenodd"/>
      </g>
    </g>
  </g>
</svg>
